<svg width="388" height="337" viewBox="0 0 388 337" fill="none" xmlns="http://www.w3.org/2000/svg">
<g clip-path="url(#clip0_370_148)">
<path d="M359.241 312.014L369.692 308.699C370.995 303.092 370.908 297.251 369.441 291.685C365.242 301.018 352.922 303.305 345.903 310.754C343.732 313.095 342.115 315.893 341.173 318.943C340.23 321.993 339.987 325.216 340.46 328.372L338.261 335.829C343.396 335.391 348.376 333.844 352.856 331.296C357.337 328.749 361.211 325.26 364.213 321.071C365.874 318.705 367.23 316.139 368.249 313.433C363.792 312.987 359.241 312.014 359.241 312.014Z" fill="#F2F2F2"/>
<path d="M348.072 298.225L355.948 290.598C354.612 284.999 351.929 279.809 348.132 275.481C348.538 285.707 338.532 293.246 335.573 303.044C334.673 306.106 334.475 309.332 334.992 312.482C335.509 315.632 336.729 318.625 338.56 321.239L339.919 328.894C344.32 326.212 348.087 322.607 350.96 318.33C353.834 314.052 355.745 309.202 356.563 304.114C356.994 301.256 357.063 298.354 356.768 295.479C352.58 297.067 348.072 298.225 348.072 298.225Z" fill="#F2F2F2"/>
<path d="M295.716 22.3529H1.1459C0.839513 22.3464 0.547871 22.2201 0.333481 22.0012C0.119091 21.7823 -0.000976562 21.4882 -0.000976562 21.1818C-0.000976562 20.8754 0.119091 20.5813 0.333481 20.3624C0.547871 20.1435 0.839513 20.0172 1.1459 20.0107H295.716C296.023 20.0172 296.314 20.1435 296.529 20.3624C296.743 20.5813 296.863 20.8754 296.863 21.1818C296.863 21.4882 296.743 21.7823 296.529 22.0012C296.314 22.2201 296.023 22.3464 295.716 22.3529Z" fill="#3F3D56"/>
<path d="M21.1976 14.0318C24.9891 14.0318 28.0627 10.8907 28.0627 7.0159C28.0627 3.14112 24.9891 0 21.1976 0C17.4061 0 14.3325 3.14112 14.3325 7.0159C14.3325 10.8907 17.4061 14.0318 21.1976 14.0318Z" fill="#3F3D56"/>
<path d="M44.9134 14.0318C48.7049 14.0318 51.7785 10.8907 51.7785 7.0159C51.7785 3.14112 48.7049 0 44.9134 0C41.1219 0 38.0483 3.14112 38.0483 7.0159C38.0483 10.8907 41.1219 14.0318 44.9134 14.0318Z" fill="#3F3D56"/>
<path d="M68.6293 14.0318C72.4207 14.0318 75.4944 10.8907 75.4944 7.0159C75.4944 3.14112 72.4207 0 68.6293 0C64.8378 0 61.7642 3.14112 61.7642 7.0159C61.7642 10.8907 64.8378 14.0318 68.6293 14.0318Z" fill="#3F3D56"/>
<path d="M281.437 1.73828H264.591C264.257 1.74493 263.939 1.8822 263.705 2.12062C263.471 2.35904 263.34 2.67959 263.34 3.01346C263.34 3.34733 263.471 3.66789 263.705 3.90631C263.939 4.14473 264.257 4.28199 264.591 4.28864H281.437C281.771 4.28199 282.089 4.14473 282.323 3.90631C282.557 3.66789 282.688 3.34733 282.688 3.01346C282.688 2.67959 282.557 2.35904 282.323 2.12062C282.089 1.8822 281.771 1.74493 281.437 1.73828Z" fill="#3F3D56"/>
<path d="M281.437 6.52539H264.591C264.257 6.532 263.939 6.66925 263.705 6.90768C263.471 7.1461 263.34 7.46667 263.34 7.80057C263.34 8.13447 263.471 8.45505 263.705 8.69347C263.939 8.9319 264.257 9.06914 264.591 9.07575H281.437C281.771 9.06914 282.089 8.9319 282.323 8.69347C282.557 8.45505 282.688 8.13447 282.688 7.80057C282.688 7.46667 282.557 7.1461 282.323 6.90768C282.089 6.66925 281.771 6.532 281.437 6.52539Z" fill="#3F3D56"/>
<path d="M281.437 11.3057H264.591C264.257 11.3123 263.939 11.4495 263.705 11.6879C263.471 11.9264 263.34 12.2469 263.34 12.5808C263.34 12.9147 263.471 13.2353 263.705 13.4737C263.939 13.7122 264.257 13.8494 264.591 13.856H281.437C281.771 13.8494 282.089 13.7122 282.323 13.4737C282.557 13.2353 282.688 12.9147 282.688 12.5808C282.688 12.2469 282.557 11.9264 282.323 11.6879C282.089 11.4495 281.771 11.3123 281.437 11.3057Z" fill="#3F3D56"/>
<path d="M22.8199 69.9323C27.5073 69.9323 31.3072 66.1336 31.3072 61.4476C31.3072 56.7616 27.5073 52.9629 22.8199 52.9629C18.1324 52.9629 14.3325 56.7616 14.3325 61.4476C14.3325 66.1336 18.1324 69.9323 22.8199 69.9323Z" fill="#E6E7E8"/>
<path d="M238.951 80.2358H16.8599C16.1896 80.2358 15.5467 79.9696 15.0728 79.4958C14.5988 79.0219 14.3325 78.3793 14.3325 77.7092C14.3325 77.0391 14.5988 76.3965 15.0728 75.9226C15.5467 75.4488 16.1896 75.1826 16.8599 75.1826H238.951C239.621 75.1826 240.264 75.4488 240.738 75.9226C241.212 76.3965 241.478 77.0391 241.478 77.7092C241.478 78.3793 241.212 79.0219 240.738 79.4958C240.264 79.9696 239.621 80.2358 238.951 80.2358Z" fill="#E6E7E8"/>
<path d="M180.704 90.2194H16.86C16.1897 90.2194 15.5468 89.9532 15.0728 89.4794C14.5988 89.0055 14.3325 88.3628 14.3325 87.6927C14.3325 87.0226 14.5988 86.3799 15.0728 85.9061C15.5468 85.4322 16.1897 85.166 16.86 85.166H180.704C181.374 85.166 182.017 85.4322 182.491 85.9061C182.965 86.3799 183.231 87.0226 183.231 87.6927C183.231 88.3628 182.965 89.0055 182.491 89.4794C182.017 89.9532 181.374 90.2194 180.704 90.2194Z" fill="#E6E7E8"/>
<path d="M22.8199 202.365C27.5073 202.365 31.3072 198.566 31.3072 193.88C31.3072 189.194 27.5073 185.396 22.8199 185.396C18.1324 185.396 14.3325 189.194 14.3325 193.88C14.3325 198.566 18.1324 202.365 22.8199 202.365Z" fill="#E6E7E8"/>
<path d="M238.951 212.668H16.86C16.5278 212.669 16.1987 212.604 15.8916 212.477C15.5845 212.35 15.3054 212.164 15.0703 211.93C14.8352 211.695 14.6487 211.416 14.5214 211.11C14.3941 210.803 14.3286 210.474 14.3286 210.142C14.3286 209.81 14.3941 209.481 14.5214 209.174C14.6487 208.867 14.8352 208.588 15.0703 208.354C15.3054 208.119 15.5845 207.933 15.8916 207.806C16.1987 207.68 16.5278 207.615 16.86 207.615H238.951C239.655 207.654 240.319 207.955 240.813 208.459C241.306 208.962 241.594 209.632 241.619 210.337C241.598 210.665 241.512 210.987 241.367 211.282C241.221 211.577 241.019 211.841 240.771 212.058C240.523 212.275 240.234 212.44 239.922 212.545C239.61 212.65 239.28 212.692 238.951 212.668Z" fill="#E6E7E8"/>
<path d="M180.704 222.652H16.86C16.1897 222.652 15.5468 222.386 15.0728 221.912C14.5988 221.438 14.3325 220.795 14.3325 220.125C14.3325 219.455 14.5988 218.813 15.0728 218.339C15.5468 217.865 16.1897 217.599 16.86 217.599H180.704C181.374 217.599 182.017 217.865 182.491 218.339C182.965 218.813 183.231 219.455 183.231 220.125C183.231 220.795 182.965 221.438 182.491 221.912C182.017 222.386 181.374 222.652 180.704 222.652Z" fill="#E6E7E8"/>
<path d="M22.8199 131.157C27.5073 131.157 31.3072 127.358 31.3072 122.672C31.3072 117.986 27.5073 114.188 22.8199 114.188C18.1324 114.188 14.3325 117.986 14.3325 122.672C14.3325 127.358 18.1324 131.157 22.8199 131.157Z" fill="#E6E7E8"/>
<path d="M238.951 141.46H16.8599C16.1896 141.46 15.5467 141.194 15.0728 140.72C14.5988 140.247 14.3325 139.604 14.3325 138.934C14.3325 138.264 14.5988 137.621 15.0728 137.147C15.5467 136.673 16.1896 136.407 16.8599 136.407H238.951C239.621 136.407 240.264 136.673 240.738 137.147C241.212 137.621 241.478 138.264 241.478 138.934C241.478 139.604 241.212 140.247 240.738 140.72C240.264 141.194 239.621 141.46 238.951 141.46Z" fill="#E6E7E8"/>
<path d="M208.023 151.444H16.86C16.1897 151.444 15.5468 151.178 15.0728 150.704C14.5988 150.23 14.3325 149.587 14.3325 148.917C14.3325 148.247 14.5988 147.605 15.0728 147.131C15.5468 146.657 16.1897 146.391 16.86 146.391H208.023C208.694 146.391 209.337 146.657 209.811 147.131C210.285 147.605 210.551 148.247 210.551 148.917C210.551 149.587 210.285 150.23 209.811 150.704C209.337 151.178 208.694 151.444 208.023 151.444Z" fill="#E6E7E8"/>
<path d="M195.049 161.427H16.86C16.1897 161.427 15.5468 161.161 15.0728 160.687C14.5988 160.214 14.3325 159.571 14.3325 158.901C14.3325 158.231 14.5988 157.588 15.0728 157.114C15.5468 156.64 16.1897 156.374 16.86 156.374H195.049C195.719 156.374 196.362 156.64 196.836 157.114C197.31 157.588 197.576 158.231 197.576 158.901C197.576 159.571 197.31 160.214 196.836 160.687C196.362 161.161 195.719 161.427 195.049 161.427Z" fill="#E6E7E8"/>
<path d="M198.735 273.127C233.448 273.127 261.588 244.996 261.588 210.294C261.588 175.592 233.448 147.46 198.735 147.46C164.022 147.46 135.882 175.592 135.882 210.294C135.882 244.996 164.022 273.127 198.735 273.127Z" fill="#6C63FF"/>
<path d="M198.649 232.217C203.608 232.217 207.628 228.198 207.628 223.241C207.628 218.283 203.608 214.265 198.649 214.265C193.69 214.265 189.67 218.283 189.67 223.241C189.67 228.198 193.69 232.217 198.649 232.217Z" fill="#3F3D56"/>
<path d="M198.649 227.383C200.938 227.383 202.793 225.529 202.793 223.241C202.793 220.952 200.938 219.098 198.649 219.098C196.36 219.098 194.505 220.952 194.505 223.241C194.505 225.529 196.36 227.383 198.649 227.383Z" fill="#6C63FF"/>
<path d="M215.317 243.221H182.155C178.871 243.217 175.723 241.912 173.401 239.591C171.079 237.27 169.773 234.122 169.769 230.84V215.64C169.773 212.357 171.079 209.21 173.401 206.889C175.723 204.567 178.871 203.262 182.155 203.258H215.317C218.601 203.262 221.749 204.567 224.071 206.889C226.393 209.21 227.699 212.357 227.703 215.64V230.84C227.699 234.122 226.393 237.269 224.071 239.591C221.749 241.912 218.601 243.217 215.317 243.221ZM182.155 204.554C179.215 204.558 176.396 205.727 174.317 207.805C172.239 209.883 171.069 212.701 171.066 215.64V230.84C171.069 233.779 172.239 236.596 174.317 238.674C176.396 240.752 179.215 241.921 182.155 241.925H215.317C218.257 241.921 221.076 240.752 223.154 238.674C225.233 236.596 226.403 233.779 226.406 230.84V215.64C226.403 212.701 225.233 209.883 223.154 207.805C221.076 205.727 218.257 204.558 215.317 204.554L182.155 204.554Z" fill="white"/>
<path d="M180.19 234.97H209.625C211.153 234.97 212.666 234.669 214.077 234.085C215.489 233.5 216.771 232.644 217.852 231.564C218.932 230.484 219.789 229.201 220.374 227.79C220.958 226.379 221.259 224.867 221.259 223.339V210.619C221.257 209.209 220.997 207.81 220.492 206.493C221.928 207.574 223.093 208.974 223.896 210.582C224.698 212.19 225.116 213.962 225.116 215.759V228.48C225.116 230.007 224.815 231.519 224.23 232.931C223.645 234.342 222.789 235.624 221.708 236.704C220.628 237.784 219.345 238.64 217.934 239.225C216.522 239.809 215.009 240.11 213.482 240.11H184.046C181.687 240.109 179.385 239.39 177.444 238.05C175.503 236.71 174.016 234.811 173.18 232.606C175.195 234.14 177.657 234.97 180.19 234.97Z" fill="#3F3D56"/>
<path d="M270.33 328.347L263.097 328.347L259.656 300.456L270.332 300.457L270.33 328.347Z" fill="#A0616A"/>
<path d="M270.585 335.89L248.342 335.889V335.608C248.342 333.313 249.255 331.111 250.878 329.488C252.502 327.865 254.704 326.954 257 326.953H257L261.063 323.872L268.644 326.954L270.585 326.954L270.585 335.89Z" fill="#2F2E41"/>
<path d="M321.509 328.347L328.742 328.347L332.183 300.456L321.507 300.457L321.509 328.347Z" fill="#A0616A"/>
<path d="M321.254 335.89L343.496 335.889V335.608C343.496 333.313 342.584 331.111 340.96 329.488C339.337 327.865 337.135 326.954 334.839 326.953H334.838L330.775 323.872L323.195 326.954L321.253 326.954L321.254 335.89Z" fill="#2F2E41"/>
<path d="M259.338 279.96C259.445 278.369 260.294 269.567 260.294 269.567L262.329 250.902L265.914 201.426L266.148 198.187L284.931 194.582L297.768 188.43L313.026 193.306L324.907 197.76C324.907 197.76 324.928 199.666 325.019 201.97C325.141 204.985 325.355 208.681 325.863 209.642C326.713 211.34 326.499 220.457 326.499 220.457C326.499 220.457 327.343 239.005 328.406 241.039C329.469 243.072 329.683 247.308 329.363 248.157C329.042 249.006 330.426 271.281 330.426 271.281C330.426 271.281 333.976 310.699 331.749 316.643C329.521 322.587 321.103 318.693 321.103 318.693C321.103 318.693 321.51 317.107 319.068 316.36C316.627 315.612 309.191 259.719 309.191 259.719C309.191 259.719 307.808 248.258 306.537 244.974C305.265 241.689 304.095 232.461 304.095 232.461C304.095 232.461 296.242 217.187 296.141 213.791C296.141 213.791 295.113 210.613 294.142 214.111C293.17 217.609 290.307 225.988 290.307 225.988L287.515 236.279L284.229 251.655L282.103 264.6C282.103 264.6 278.919 281.78 278.411 282.523C277.902 283.265 278.411 298.961 278.411 298.961C278.411 298.961 275.949 312.328 272.47 314.661C268.991 316.995 259.775 314.698 259.775 314.698C259.775 314.698 259.231 281.551 259.338 279.96Z" fill="#2F2E41"/>
<path d="M267.351 153.062L271.527 165.636L266.375 171.767L268.643 174.102L266.97 177.401L262.606 211.986L286.531 221.056L294.587 210.958L300.94 221.056L328.623 214.294L321.563 170.192V167.308L319.57 161.741V149.955L324.834 114.873L309.123 109.371L301.611 103.428L299.18 111.786L288.83 109.946L288.56 103.666L280.641 111.146L273.973 113.047L265.988 114.873L264.971 117.415L267.005 116.907L266.675 149.981L267.351 153.062Z" fill="#2F2E41"/>
<path d="M260.2 199.068L264.218 160.187L265.278 144.185L254.032 142.152C254.032 142.152 254.477 153.594 253.004 160.05C251.55 166.42 252.811 198.215 252.901 199.065C252.075 199.803 251.493 200.775 251.231 201.851C250.97 202.928 251.041 204.058 251.436 205.093C251.831 206.128 252.531 207.018 253.444 207.647C254.356 208.275 255.438 208.612 256.546 208.613C257.654 208.613 258.736 208.277 259.649 207.65C260.562 207.022 261.263 206.132 261.659 205.098C262.055 204.063 262.127 202.933 261.867 201.856C261.606 200.78 261.025 199.808 260.2 199.068Z" fill="#A0616A"/>
<path d="M249.23 168.245L252.358 168.89L263.089 171.112L263.684 171.234L264.951 166.201L266.42 164.635L269.218 149.981L269.365 149.219L273.592 140.189L276.516 113.048L265.642 115C265.586 115.056 265.535 115.117 265.484 115.178C263.923 116.948 262.809 119.408 260.988 121.885C255.063 129.943 250.516 149.524 250.694 160.252C250.7 160.425 250.522 160.613 250.308 160.806C249.3 161.733 248.642 162.979 248.445 164.334C248.249 165.689 248.526 167.07 249.23 168.245Z" fill="#2F2E41"/>
<path d="M330.113 199.068L326.095 160.187L325.034 144.185L336.281 142.152C336.281 142.152 335.835 153.594 337.308 160.05C338.762 166.42 337.501 198.215 337.411 199.065C338.237 199.803 338.82 200.775 339.081 201.851C339.343 202.928 339.271 204.058 338.876 205.093C338.481 206.128 337.781 207.018 336.869 207.647C335.956 208.275 334.875 208.612 333.767 208.613C332.659 208.613 331.577 208.277 330.664 207.65C329.751 207.022 329.05 206.132 328.654 205.098C328.258 204.063 328.185 202.933 328.446 201.856C328.706 200.78 329.288 199.808 330.113 199.068Z" fill="#A0616A"/>
<path d="M341.083 168.245L337.955 168.89L327.224 171.112L326.629 171.234L325.362 166.201L323.892 164.635L321.095 149.981L320.948 149.219L316.721 140.189L317.688 113.048L324.671 115C324.727 115.056 324.778 115.117 324.829 115.178C326.39 116.948 327.504 119.408 329.325 121.885C335.25 129.943 339.796 149.524 339.618 160.252C339.613 160.425 339.791 160.613 340.005 160.806C341.013 161.733 341.671 162.979 341.868 164.334C342.064 165.689 341.787 167.07 341.083 168.245Z" fill="#2F2E41"/>
<path d="M283.451 117.063L288.56 103.667L301.611 103.428L305.942 117.063L321.507 203.991C321.507 203.991 273.82 217.267 274.304 201.309C274.813 184.53 277.107 162.242 277.107 162.242L283.451 117.063Z" fill="#CBCBCB"/>
<path d="M294.793 99.9199C303.284 99.9199 310.167 93.0389 310.167 84.5507C310.167 76.0626 303.284 69.1816 294.793 69.1816C286.303 69.1816 279.419 76.0626 279.419 84.5507C279.419 93.0389 286.303 99.9199 294.793 99.9199Z" fill="#A0616A"/>
<path d="M278.513 73.4013C281.016 70.6779 284.146 65.6928 293.629 63.5994C305.346 61.0127 310.883 71.5942 307.928 71.7677C316.568 74.3833 311.018 92.2581 308.541 90.759C308.519 90.7441 308.499 90.7282 308.479 90.7112C307.147 89.7305 306.029 88.4885 305.193 87.0612C304.357 85.6339 303.821 84.0512 303.618 82.4098L303.148 78.18C303.081 81.6215 299.562 82.0767 295.967 80.8093C296.18 80.0547 296.585 79.3686 297.144 78.8186C297.703 78.2686 298.396 77.8738 299.153 77.6731C296.648 79.9441 293.464 81.3287 290.094 81.6136C290.271 80.7519 290.63 79.938 291.147 79.2264C291.664 78.5149 292.328 77.9222 293.093 77.4883L292.951 77.3489C291.547 78.5324 289.936 79.4447 288.198 80.0392C286.217 80.607 283.842 80.2999 282.485 78.7492C282.119 78.3213 281.843 77.8245 281.673 77.2881C281.966 80.0136 280.138 83.1248 278.717 82.5907C277.535 82.3611 276.847 75.2143 278.513 73.4013Z" fill="#2F2E41"/>
<path d="M388 335.888C388 335.989 387.98 336.089 387.942 336.183C387.903 336.277 387.846 336.362 387.775 336.434C387.703 336.505 387.618 336.562 387.524 336.601C387.43 336.64 387.33 336.659 387.228 336.659H205.484C205.279 336.659 205.083 336.578 204.938 336.433C204.794 336.288 204.712 336.092 204.712 335.888C204.712 335.683 204.794 335.487 204.938 335.342C205.083 335.197 205.279 335.116 205.484 335.116H387.228C387.33 335.116 387.43 335.136 387.524 335.174C387.618 335.213 387.703 335.27 387.774 335.341C387.846 335.413 387.903 335.498 387.942 335.592C387.98 335.686 388 335.786 388 335.888Z" fill="#CCCCCC"/>
<path d="M199.247 176.225C193.099 176.225 187.695 179.007 184.636 183.183C187.907 180.803 191.855 179.537 195.901 179.57C205.42 179.57 213.165 186.236 213.165 194.43V201.241H216.511V191.085C216.511 182.891 208.766 176.225 199.247 176.225Z" fill="#3F3D56"/>
<path d="M218.81 204.728H178.661V192.919C178.661 183.391 187.666 175.64 198.735 175.64C209.804 175.64 218.81 183.391 218.81 192.919V204.728ZM179.958 203.431H217.513V192.919C217.513 184.106 209.089 176.936 198.735 176.936C188.381 176.936 179.958 184.106 179.958 192.919V203.431Z" fill="white"/>
<path d="M209.018 200.22H188.453C187.528 200.219 186.641 199.851 185.987 199.197C185.333 198.543 184.965 197.656 184.964 196.731V192.031C184.964 185.479 191.142 180.148 198.735 180.148C206.329 180.148 212.507 185.479 212.507 192.031V196.731C212.506 197.656 212.138 198.543 211.484 199.197C210.83 199.851 209.943 200.219 209.018 200.22ZM198.735 181.445C191.857 181.445 186.261 186.194 186.261 192.031V196.731C186.261 197.312 186.492 197.869 186.903 198.28C187.315 198.691 187.872 198.922 188.453 198.923H209.018C209.599 198.922 210.156 198.691 210.567 198.28C210.978 197.869 211.21 197.312 211.21 196.731V192.031C211.21 186.194 205.614 181.445 198.735 181.445Z" fill="white"/>
</g>
<defs>
<clipPath id="clip0_370_148">
<rect width="388" height="336.659" fill="white"/>
</clipPath>
</defs>
</svg>
