<svg width="389" height="285" viewBox="0 0 389 285" fill="none" xmlns="http://www.w3.org/2000/svg">
<g clip-path="url(#clip0_277_183)">
<path d="M360.51 285V252.638C360.51 252.638 373.134 275.582 360.51 285Z" fill="#F1F1F1"/>
<path d="M361.29 284.994L337.429 263.108C337.429 263.108 362.882 269.334 361.29 284.994Z" fill="#F1F1F1"/>
<path d="M258.209 199.513C258.156 198.921 258.233 198.324 258.436 197.765C258.639 197.205 258.962 196.697 259.382 196.276C259.803 195.855 260.311 195.531 260.87 195.328C261.429 195.124 262.027 195.045 262.62 195.097L266.921 186.852L272.574 188.241L266.336 199.8C266.183 200.79 265.671 201.689 264.899 202.327C264.126 202.966 263.147 203.299 262.145 203.263C261.143 203.228 260.189 202.827 259.464 202.136C258.738 201.445 258.292 200.512 258.209 199.513H258.209Z" fill="#FFB7B7"/>
<path d="M283.885 279.842L279.114 279.842L276.845 261.46L283.885 261.46L283.885 279.842Z" fill="#FFB7B7"/>
<path d="M285.101 284.461L269.721 284.461V284.266C269.721 282.68 270.352 281.159 271.474 280.037C272.597 278.915 274.119 278.285 275.707 278.285H275.707L285.101 278.286L285.101 284.461Z" fill="#2F2E41"/>
<path d="M322.248 276.282L317.646 277.535L310.616 260.397L317.408 258.547L322.248 276.282Z" fill="#FFB7B7"/>
<path d="M324.639 280.419L309.8 284.462L309.749 284.274C309.331 282.744 309.539 281.11 310.327 279.733C311.115 278.356 312.418 277.348 313.949 276.93L313.95 276.93L323.012 274.461L324.639 280.419Z" fill="#2F2E41"/>
<path d="M275.176 200.437L272.797 236.537L277.908 277.039L286.28 274.486L286.633 238.298L293.33 217.43L313.159 273.165L322.236 269.819L314.745 233.631L310.515 199.645L275.176 200.437Z" fill="#2F2E41"/>
<path d="M298.308 137.045L284.21 139.122L279.131 144.141L277.554 162.173L278.534 178.145L274.451 206.311C274.451 206.311 284.718 200.616 292.675 207.745C300.632 214.873 311.766 209.004 311.995 204.262L298.308 137.045Z" fill="#CBCBCB"/>
<path d="M291.15 159.66L291.149 159.639L298.153 136.831L298.244 136.825C298.742 136.792 310.484 136.101 313.11 141.893L313.123 141.921L312.325 165.624L313.424 202.747L291.707 207.446L291.549 207.481L291.15 159.66Z" fill="#2F2E41"/>
<path d="M283.388 158.083L284.673 138.747C275.536 139.315 275.673 145.788 275.684 146.07L275.584 174.992L273.754 205.934L280.408 205.436L283.388 158.083Z" fill="#2F2E41"/>
<path d="M262.784 193.266L270.897 174.455L276.559 164.066L279.515 182.806L269.251 198.189L262.784 193.266Z" fill="#2F2E41"/>
<path d="M296.311 186.345C296.435 185.763 296.685 185.216 297.044 184.741C297.403 184.266 297.862 183.876 298.388 183.598C298.914 183.319 299.495 183.16 300.089 183.13C300.684 183.1 301.278 183.201 301.829 183.425L308.374 176.814L313.365 179.808L303.991 189.014C303.553 189.915 302.799 190.623 301.872 191.006C300.946 191.388 299.911 191.417 298.964 191.088C298.018 190.759 297.224 190.094 296.735 189.22C296.246 188.346 296.095 187.323 296.311 186.345Z" fill="#FFB7B7"/>
<path d="M301.814 181.012L315.158 166.387L306.325 153.794L307.234 147.637L312.44 141.212L312.542 141.343C313.097 142.061 326.137 158.987 326.511 165.395C326.887 171.826 308.143 188.095 307.345 188.784L307.234 188.88L301.814 181.012Z" fill="#2F2E41"/>
<path d="M290.174 135.461C295.412 135.461 299.658 131.218 299.658 125.985C299.658 120.751 295.412 116.509 290.174 116.509C284.936 116.509 280.689 120.751 280.689 125.985C280.689 131.218 284.936 135.461 290.174 135.461Z" fill="#FFB7B7"/>
<path d="M299.094 118.409L299.554 117.485L297.24 116.336C297.24 116.336 294.688 112.187 290.069 113.353C285.451 114.519 283.373 115.217 283.373 115.217L281.066 116.377L282.224 117.528L280.146 118.226L281.534 118.915L279.919 119.843L280.788 124.598C280.788 124.598 282.233 120.991 285.009 122.369C287.785 123.748 292.863 121.657 292.863 121.657L297.275 130.188C297.275 130.188 298.185 127.197 299.808 127.995C299.808 127.995 303.954 121.398 299.094 118.409Z" fill="#2F2E41"/>
<path d="M191.778 172.058L47.5517 211.798L0.0585938 39.7405L144.285 0L191.778 172.058Z" fill="white"/>
<path d="M191.778 172.058L47.5517 211.798L0.0585938 39.7405L144.285 0L191.778 172.058ZM49.3944 208.555L188.532 170.217L142.442 3.2432L3.30469 41.5815L49.3944 208.555Z" fill="#F1F1F1"/>
<path d="M112.898 77.079L76.7452 87.0407C76.2352 87.1806 75.6905 87.1126 75.2305 86.8518C74.7706 86.5909 74.433 86.1585 74.2918 85.6492L64.3213 49.5281C64.1812 49.0185 64.2492 48.4743 64.5103 48.0148C64.7714 47.5552 65.2043 47.2179 65.714 47.0769L101.867 37.1152C102.377 36.9753 102.922 37.0432 103.382 37.304C103.842 37.5649 104.179 37.9974 104.32 38.5066L114.291 74.6278C114.431 75.1373 114.363 75.6816 114.102 76.1411C113.841 76.6006 113.408 76.9379 112.898 77.079ZM65.9261 47.8454C65.6203 47.93 65.3605 48.1324 65.2039 48.4081C65.0472 48.6839 65.0064 49.0104 65.0904 49.3162L75.061 85.4373C75.1457 85.7428 75.3482 86.0023 75.6242 86.1588C75.9002 86.3154 76.227 86.3561 76.533 86.2722L112.686 76.3105C112.992 76.2258 113.252 76.0235 113.408 75.7477C113.565 75.472 113.606 75.1455 113.522 74.8397L103.551 38.7186C103.466 38.4131 103.264 38.1536 102.988 37.997C102.712 37.8405 102.385 37.7998 102.079 37.8837L65.9261 47.8454Z" fill="#E5E5E5"/>
<path d="M103.734 84.3595L67.5807 94.3212C67.1217 94.4471 66.6314 94.386 66.2175 94.1512C65.8035 93.9164 65.4997 93.5272 65.3726 93.0689L55.402 56.9477C55.276 56.4891 55.3372 55.9993 55.5722 55.5857C55.8072 55.1721 56.1967 54.8686 56.6555 54.7416L92.8086 44.7799C93.2676 44.654 93.7578 44.7151 94.1718 44.9499C94.5857 45.1847 94.8895 45.5739 95.0166 46.0322L104.987 82.1534C105.113 82.612 105.052 83.1018 104.817 83.5154C104.582 83.9289 104.192 84.2325 103.734 84.3595Z" fill="#6C63FF"/>
<path d="M145.615 89.2906L44.7261 117.09L45.8013 120.985L146.69 93.1859L145.615 89.2906Z" fill="#F1F1F1"/>
<path d="M148.419 99.4469L47.5293 127.246L48.6045 131.141L149.494 103.342L148.419 99.4469Z" fill="#F1F1F1"/>
<path d="M151.222 109.603L50.333 137.402L51.4082 141.298L152.297 113.498L151.222 109.603Z" fill="#F1F1F1"/>
<path d="M156.156 127.478L55.2671 155.277L56.3423 159.173L157.232 131.373L156.156 127.478Z" fill="#F1F1F1"/>
<path d="M158.96 137.633L58.0703 165.433L59.1455 169.328L160.035 141.529L158.96 137.633Z" fill="#F1F1F1"/>
<path d="M161.763 147.79L60.8735 175.589L61.9487 179.484L162.838 151.685L161.763 147.79Z" fill="#F1F1F1"/>
<path d="M237.946 211.223H88.3354V32.7422H237.946V211.223Z" fill="white"/>
<path d="M237.946 211.223H88.3354V32.7422H237.946V211.223ZM90.9748 208.586H235.307V35.3792H90.9748V208.586Z" fill="#E5E5E5"/>
<path d="M210.707 109.469H125.168V113.509H210.707V109.469Z" fill="#6C63FF"/>
<path d="M210.707 119.975H125.168V124.015H210.707V119.975Z" fill="#6C63FF"/>
<path d="M210.707 130.48H125.168V134.521H210.707V130.48Z" fill="#6C63FF"/>
<path d="M118.214 114.718C119.672 114.718 120.853 113.538 120.853 112.081C120.853 110.625 119.672 109.444 118.214 109.444C116.756 109.444 115.575 110.625 115.575 112.081C115.575 113.538 116.756 114.718 118.214 114.718Z" fill="#6C63FF"/>
<path d="M210.707 64.2002H125.168V68.2409H210.707V64.2002Z" fill="#E5E5E5"/>
<path d="M210.707 74.7061H125.168V78.7467H210.707V74.7061Z" fill="#E5E5E5"/>
<path d="M210.707 85.2119H125.168V89.2526H210.707V85.2119Z" fill="#E5E5E5"/>
<path d="M118.214 69.0094C119.672 69.0094 120.853 67.8288 120.853 66.3724C120.853 64.916 119.672 63.7354 118.214 63.7354C116.756 63.7354 115.575 64.916 115.575 66.3724C115.575 67.8288 116.756 69.0094 118.214 69.0094Z" fill="#E5E5E5"/>
<path d="M210.707 155.178H125.168V159.218H210.707V155.178Z" fill="#E5E5E5"/>
<path d="M210.707 165.684H125.168V169.724H210.707V165.684Z" fill="#E5E5E5"/>
<path d="M210.707 176.189H125.168V180.23H210.707V176.189Z" fill="#E5E5E5"/>
<path d="M118.214 159.988C119.672 159.988 120.853 158.807 120.853 157.351C120.853 155.895 119.672 154.714 118.214 154.714C116.756 154.714 115.575 155.895 115.575 157.351C115.575 158.807 116.756 159.988 118.214 159.988Z" fill="#E5E5E5"/>
<path d="M230.961 226.592C247.85 226.592 261.541 212.913 261.541 196.04C261.541 179.166 247.85 165.487 230.961 165.487C214.073 165.487 200.382 179.166 200.382 196.04C200.382 212.913 214.073 226.592 230.961 226.592Z" fill="#6C63FF"/>
<path d="M239.434 194.091V188.245C239.435 187.133 239.216 186.032 238.791 185.004C238.365 183.976 237.741 183.043 236.955 182.256C236.168 181.469 235.233 180.845 234.205 180.419C233.177 179.994 232.075 179.774 230.962 179.774C229.848 179.774 228.746 179.994 227.718 180.419C226.69 180.845 225.755 181.469 224.969 182.256C224.182 183.043 223.558 183.976 223.132 185.004C222.707 186.032 222.488 187.133 222.489 188.245V194.091C221.357 194.142 220.288 194.627 219.504 195.446C218.72 196.264 218.283 197.353 218.282 198.486V212.3H243.641V198.486C243.64 197.353 243.203 196.264 242.419 195.446C241.636 194.627 240.566 194.142 239.434 194.091ZM230.962 182.761C232.417 182.763 233.812 183.341 234.841 184.369C235.87 185.397 236.449 186.791 236.45 188.245V194.081H225.473V188.245C225.474 186.791 226.053 185.397 227.082 184.369C228.111 183.341 229.506 182.763 230.962 182.761Z" fill="white"/>
<path d="M233.241 200.913C233.241 200.52 233.14 200.134 232.946 199.792C232.753 199.45 232.475 199.164 232.138 198.962C231.801 198.759 231.418 198.647 231.025 198.636C230.632 198.625 230.243 198.715 229.896 198.899C229.548 199.083 229.254 199.353 229.042 199.683C228.83 200.014 228.707 200.394 228.686 200.786C228.664 201.178 228.744 201.569 228.918 201.921C229.092 202.273 229.354 202.574 229.679 202.795V207.745H232.243V202.795C232.551 202.586 232.802 202.306 232.976 201.978C233.15 201.65 233.241 201.284 233.241 200.913Z" fill="#6C63FF"/>
<path d="M387.611 284.819H217.012C216.893 284.819 216.779 284.771 216.695 284.688C216.611 284.604 216.564 284.49 216.564 284.371C216.564 284.253 216.611 284.139 216.695 284.055C216.779 283.971 216.893 283.924 217.012 283.924H387.611C387.729 283.924 387.843 283.971 387.927 284.055C388.011 284.139 388.058 284.253 388.058 284.371C388.058 284.49 388.011 284.604 387.927 284.688C387.843 284.771 387.729 284.819 387.611 284.819Z" fill="#CBCBCB"/>
</g>
<defs>
<clipPath id="clip0_277_183">
<rect width="388" height="285" fill="white" transform="translate(0.0585938)"/>
</clipPath>
</defs>
</svg>
