<svg width="403" height="284" viewBox="0 0 403 284" fill="none" xmlns="http://www.w3.org/2000/svg">
<g clip-path="url(#clip0_277_270)">
<path d="M257.528 284V247.884C257.528 247.884 271.019 273.488 257.528 284Z" fill="#F1F1F1"/>
<path d="M258.361 283.993L232.861 259.569C232.861 259.569 260.063 266.517 258.361 283.993Z" fill="#F1F1F1"/>
<path d="M403 11.5225H0.171875V210.95H403V11.5225Z" fill="#E5E5E5"/>
<path d="M391.482 28.623H11.6909V195.012H391.482V28.623Z" fill="white"/>
<path d="M402.828 0H0V17.8545H402.828V0Z" fill="#6C63FF"/>
<path d="M12.7173 12.2035C14.4691 12.2035 15.8892 10.7219 15.8892 8.89423C15.8892 7.06657 14.4691 5.58496 12.7173 5.58496C10.9655 5.58496 9.54541 7.06657 9.54541 8.89423C9.54541 10.7219 10.9655 12.2035 12.7173 12.2035Z" fill="white"/>
<path d="M24.7569 12.2035C26.5086 12.2035 27.9287 10.7219 27.9287 8.89423C27.9287 7.06657 26.5086 5.58496 24.7569 5.58496C23.0051 5.58496 21.585 7.06657 21.585 8.89423C21.585 10.7219 23.0051 12.2035 24.7569 12.2035Z" fill="white"/>
<path d="M36.7969 12.2035C38.5487 12.2035 39.9688 10.7219 39.9688 8.89423C39.9688 7.06657 38.5487 5.58496 36.7969 5.58496C35.0451 5.58496 33.625 7.06657 33.625 8.89423C33.625 10.7219 35.0451 12.2035 36.7969 12.2035Z" fill="white"/>
<path d="M73.9134 66.502C73.4987 66.502 73.1009 66.6739 72.8076 66.9798C72.5144 67.2858 72.3496 67.7008 72.3496 68.1335C72.3496 68.5662 72.5144 68.9812 72.8076 69.2872C73.1009 69.5932 73.4987 69.765 73.9134 69.765H116.642C117.057 69.765 117.455 69.5932 117.748 69.2872C118.042 68.9812 118.206 68.5662 118.206 68.1335C118.206 67.7008 118.042 67.2858 117.748 66.9798C117.455 66.6739 117.057 66.502 116.642 66.502H73.9134Z" fill="#3F3D56"/>
<path d="M49.7479 88.9678C49.3331 88.9678 48.9354 89.1397 48.6421 89.4456C48.3488 89.7516 48.1841 90.1666 48.1841 90.5993C48.1841 91.032 48.3488 91.447 48.6421 91.753C48.9354 92.059 49.3331 92.2309 49.7479 92.2309H140.808C141.223 92.2309 141.621 92.059 141.914 91.753C142.207 91.447 142.372 91.032 142.372 90.5993C142.372 90.1666 142.207 89.7516 141.914 89.4456C141.621 89.1397 141.223 88.9678 140.808 88.9678H49.7479Z" fill="#CCCCCC"/>
<path d="M49.7479 101.948C49.3331 101.948 48.9354 102.12 48.6421 102.426C48.3488 102.732 48.1841 103.147 48.1841 103.58C48.1841 104.013 48.3488 104.428 48.6421 104.733C48.9354 105.039 49.3331 105.211 49.7479 105.211H140.808C141.223 105.211 141.621 105.039 141.914 104.733C142.207 104.428 142.372 104.013 142.372 103.58C142.372 103.147 142.207 102.732 141.914 102.426C141.621 102.12 141.223 101.948 140.808 101.948H49.7479Z" fill="#CCCCCC"/>
<path d="M49.7479 114.929C49.3331 114.929 48.9354 115.101 48.6421 115.407C48.3488 115.713 48.1841 116.128 48.1841 116.56C48.1841 116.993 48.3488 117.408 48.6421 117.714C48.9354 118.02 49.3331 118.192 49.7479 118.192H140.808C141.223 118.192 141.621 118.02 141.914 117.714C142.207 117.408 142.372 116.993 142.372 116.56C142.372 116.128 142.207 115.713 141.914 115.407C141.621 115.101 141.223 114.929 140.808 114.929H49.7479Z" fill="#CCCCCC"/>
<path d="M49.7479 127.909C49.3331 127.909 48.9354 128.081 48.6421 128.387C48.3488 128.693 48.1841 129.108 48.1841 129.541C48.1841 129.973 48.3488 130.388 48.6421 130.694C48.9354 131 49.3331 131.172 49.7479 131.172H140.808C141.223 131.172 141.621 131 141.914 130.694C142.207 130.388 142.372 129.973 142.372 129.541C142.372 129.108 142.207 128.693 141.914 128.387C141.621 128.081 141.223 127.909 140.808 127.909H49.7479Z" fill="#CCCCCC"/>
<path d="M49.7479 140.891C49.3331 140.891 48.9354 141.063 48.6421 141.368C48.3488 141.674 48.1841 142.089 48.1841 142.522C48.1841 142.955 48.3488 143.37 48.6421 143.676C48.9354 143.982 49.3331 144.154 49.7479 144.154H140.808C141.223 144.154 141.621 143.982 141.914 143.676C142.207 143.37 142.372 142.955 142.372 142.522C142.372 142.089 142.207 141.674 141.914 141.368C141.621 141.063 141.223 140.891 140.808 140.891H49.7479Z" fill="#CCCCCC"/>
<path d="M49.7479 153.871C49.3331 153.871 48.9354 154.043 48.6421 154.349C48.3488 154.655 48.1841 155.07 48.1841 155.503C48.1841 155.935 48.3488 156.35 48.6421 156.656C48.9354 156.962 49.3331 157.134 49.7479 157.134H140.808C141.223 157.134 141.621 156.962 141.914 156.656C142.207 156.35 142.372 155.935 142.372 155.503C142.372 155.07 142.207 154.655 141.914 154.349C141.621 154.043 141.223 153.871 140.808 153.871H49.7479Z" fill="#CCCCCC"/>
<path d="M350.142 157.832H212.277C211.356 157.831 210.472 157.449 209.821 156.769C209.169 156.089 208.803 155.167 208.802 154.206V69.5968C208.803 68.6354 209.169 67.7137 209.821 67.0339C210.472 66.3541 211.356 65.9717 212.277 65.9707H350.142C351.063 65.9717 351.947 66.3541 352.598 67.0339C353.25 67.7137 353.617 68.6354 353.618 69.5968V154.206C353.617 155.167 353.25 156.089 352.598 156.769C351.947 157.449 351.063 157.831 350.142 157.832Z" fill="#F1F1F1"/>
<path d="M368.278 177.185H230.414C229.492 177.184 228.609 176.801 227.957 176.121C227.305 175.442 226.939 174.52 226.938 173.558V88.9493C226.939 87.988 227.305 87.0663 227.957 86.3865C228.609 85.7067 229.492 85.3243 230.414 85.3232H368.278C369.2 85.3243 370.083 85.7067 370.735 86.3865C371.386 87.0663 371.753 87.988 371.754 88.9493V173.558C371.753 174.52 371.386 175.442 370.735 176.121C370.083 176.801 369.2 177.184 368.278 177.185Z" fill="white"/>
<path d="M368.278 178.418H230.414C229.179 178.417 227.995 177.904 227.121 176.993C226.248 176.082 225.757 174.846 225.755 173.558V88.949C225.757 87.6605 226.248 86.4251 227.121 85.514C227.995 84.6029 229.179 84.0903 230.414 84.0889H368.278C369.513 84.0903 370.697 84.6028 371.571 85.514C372.444 86.4251 372.935 87.6605 372.937 88.949V173.558C372.935 174.846 372.444 176.082 371.571 176.993C370.697 177.904 369.513 178.417 368.278 178.418ZM230.414 86.5567C229.806 86.5574 229.223 86.8097 228.793 87.2582C228.363 87.7067 228.121 88.3148 228.121 88.949V173.558C228.121 174.192 228.363 174.8 228.793 175.249C229.223 175.697 229.806 175.949 230.414 175.95H368.278C368.886 175.949 369.469 175.697 369.899 175.249C370.329 174.8 370.57 174.192 370.571 173.558V88.949C370.57 88.3148 370.329 87.7067 369.899 87.2582C369.469 86.8097 368.886 86.5574 368.278 86.5567H230.414Z" fill="#3F3D56"/>
<path d="M299.16 154.983C305.767 154.983 311.123 149.395 311.123 142.502C311.123 135.609 305.767 130.021 299.16 130.021C292.553 130.021 287.197 135.609 287.197 142.502C287.197 149.395 292.553 154.983 299.16 154.983Z" fill="#FF6583"/>
<path d="M322.238 130.493C321.534 129.714 320.688 129.089 319.749 128.656C318.81 128.223 317.797 127.99 316.771 127.971C315.744 127.952 314.725 128.147 313.772 128.545C312.818 128.943 311.951 129.535 311.221 130.288L272.422 170.767C267.452 175.977 262.264 168.009 258.948 164.796C250.976 156.57 242.365 171.995 237.006 176.412H361.686V174.756L322.238 130.493Z" fill="#6C63FF"/>
<path d="M168.551 179.561L166.453 149.23L170.221 120.807L159.52 120.053L157.408 151.45L163.377 180.976C162.869 181.709 162.59 182.588 162.579 183.493C162.568 184.398 162.825 185.285 163.315 186.031C163.805 186.778 164.504 187.349 165.317 187.665C166.13 187.981 167.017 188.028 167.856 187.799C168.695 187.569 169.446 187.075 170.005 186.383C170.565 185.692 170.906 184.837 170.982 183.935C171.058 183.034 170.866 182.13 170.43 181.347C169.995 180.564 169.339 179.94 168.551 179.561Z" fill="#9F616A"/>
<path d="M158.154 124.137L160.667 112.791C161.148 110.619 162.408 108.72 164.187 107.485C165.967 106.25 168.132 105.771 170.238 106.148C172.345 106.524 174.234 107.727 175.518 109.509C176.802 111.292 177.384 113.52 177.145 115.735L175.762 128.556L158.154 124.137Z" fill="#CBCBCB"/>
<path d="M177.965 278.381H183.01L185.41 258.079L177.964 258.08L177.965 278.381Z" fill="#9F616A"/>
<path d="M176.678 276.663L186.613 276.662H186.614C188.293 276.662 189.903 277.358 191.09 278.597C192.278 279.836 192.945 281.516 192.945 283.268V283.482L176.679 283.483L176.678 276.663Z" fill="#2F2E41"/>
<path d="M203.098 278.208L207.948 276.759L204.897 256.553L197.739 258.692L203.098 278.208Z" fill="#9F616A"/>
<path d="M201.407 276.926L210.958 274.072L210.958 274.072C212.573 273.589 214.305 273.796 215.773 274.646C217.241 275.495 218.326 276.919 218.788 278.603L218.845 278.809L203.208 283.483L201.407 276.926Z" fill="#2F2E41"/>
<path d="M175.238 271.012L177.585 209.515L171.491 181.685C163.289 167.339 172.137 144.456 172.227 144.226L172.26 144.142L172.346 144.13L193.8 141.098L194.101 141.819C202.492 161.834 204.821 184.047 200.775 205.482L198.542 217.397L209.578 263.882L199.134 269.33L191.12 247.651L185.704 269.832L175.238 271.012Z" fill="#2F2E41"/>
<path d="M169.402 149.93L162.403 128.534C158.052 120.54 160.812 113.443 163.893 108.897C167.221 103.988 167.421 101.235 167.465 101.205L167.5 101.18L176.696 100.89L185.206 109.912C185.741 109.694 190.263 121.319 189.88 121.904L195.824 141.95L169.402 149.93Z" fill="#CBCBCB"/>
<path d="M226.072 153.631L203.017 135.025L185.237 113.133L177.56 120.946L198.567 143.536L223.63 158.595C223.815 159.48 224.256 160.283 224.895 160.895C225.534 161.508 226.338 161.9 227.198 162.017C228.058 162.134 228.932 161.971 229.701 161.551C230.469 161.13 231.093 160.472 231.49 159.667C231.886 158.862 232.034 157.949 231.913 157.052C231.793 156.156 231.41 155.32 230.817 154.66C230.224 153.999 229.45 153.546 228.601 153.361C227.751 153.177 226.868 153.271 226.072 153.631V153.631Z" fill="#9F616A"/>
<path d="M175.377 128.862L168.953 119.34C167.723 117.516 167.208 115.271 167.513 113.064C167.819 110.857 168.921 108.855 170.596 107.469C172.27 106.083 174.389 105.417 176.518 105.608C178.648 105.8 180.627 106.833 182.049 108.498L190.279 118.127L175.377 128.862Z" fill="#CBCBCB"/>
<path d="M171.017 98.2672C177.047 98.2672 181.936 93.1667 181.936 86.8748C181.936 80.583 177.047 75.4824 171.017 75.4824C164.986 75.4824 160.097 80.583 160.097 86.8748C160.097 93.1667 164.986 98.2672 171.017 98.2672Z" fill="#9F616A"/>
<path d="M182.12 81.0947H164.781V73.2094C168.586 71.632 172.31 70.2905 174.562 73.2094C176.566 73.2094 178.489 74.0402 179.906 75.519C181.323 76.9978 182.12 79.0034 182.12 81.0947Z" fill="#2F2E41"/>
<path d="M167.17 71.319C151.284 70.8664 154.292 98.1716 154.292 98.1716C154.292 98.1716 157.29 98.5851 158.657 98.8281L160.309 97.8577L162.086 99.0738C162.902 99.078 163.759 99.0615 164.648 99.0443L165.463 97.2941L167.28 99.0129C170.587 99.018 179.562 99.1131 179.562 99.1131C179.562 99.1131 184.97 71.8262 167.17 71.319Z" fill="#2F2E41"/>
<path d="M295.816 283.79H113.498C113.371 283.79 113.249 283.737 113.159 283.643C113.069 283.55 113.019 283.423 113.019 283.29C113.019 283.158 113.069 283.031 113.159 282.937C113.249 282.844 113.371 282.791 113.498 282.791H295.816C295.943 282.791 296.065 282.844 296.154 282.937C296.244 283.031 296.294 283.158 296.294 283.29C296.294 283.423 296.244 283.55 296.154 283.643C296.065 283.737 295.943 283.79 295.816 283.79Z" fill="#CBCBCB"/>
</g>
<defs>
<clipPath id="clip0_277_270">
<rect width="403" height="284" fill="white"/>
</clipPath>
</defs>
</svg>
