<svg width="391" height="381" viewBox="0 0 391 381" fill="none" xmlns="http://www.w3.org/2000/svg">
<g clip-path="url(#clip0_370_93)">
<path d="M249.001 85.373H228.229V262.67C228.229 265.451 227.682 268.206 226.619 270.776C225.555 273.346 223.997 275.681 222.032 277.648C220.067 279.615 217.735 281.175 215.168 282.24C212.601 283.304 209.849 283.852 207.071 283.852H48.2595V284.055C48.2595 286.837 48.8068 289.591 49.8701 292.161C50.9334 294.731 52.4919 297.066 54.4566 299.033C56.4214 301 58.7538 302.561 61.3209 303.625C63.8879 304.69 66.6393 305.238 69.4178 305.238H249.001C251.78 305.238 254.531 304.69 257.098 303.625C259.665 302.561 261.998 301 263.962 299.033C265.927 297.066 267.486 294.731 268.549 292.161C269.612 289.591 270.16 286.837 270.16 284.055V106.556C270.16 100.938 267.93 95.5498 263.962 91.5773C259.994 87.6048 254.613 85.373 249.001 85.373Z" fill="#F2F2F2"/>
<path d="M347.471 367.125C347.839 367.142 348.203 367.046 348.514 366.849C348.825 366.651 349.068 366.363 349.21 366.023C349.352 365.683 349.386 365.308 349.308 364.948C349.229 364.588 349.042 364.26 348.772 364.01L348.649 363.52C348.665 363.481 348.682 363.442 348.698 363.403C349.068 362.527 349.689 361.78 350.482 361.256C351.275 360.732 352.205 360.454 353.156 360.458C354.106 360.461 355.034 360.746 355.823 361.276C356.612 361.806 357.228 362.557 357.591 363.436C359.046 366.943 360.898 370.457 361.354 374.165C361.555 375.804 361.47 377.466 361.104 379.076C364.52 371.615 366.294 363.506 366.305 355.298C366.306 353.239 366.192 351.181 365.963 349.134C365.774 347.456 365.512 345.79 365.176 344.136C363.345 335.161 359.414 326.749 353.705 319.59C350.941 318.081 348.707 315.76 347.302 312.94C346.793 311.926 346.433 310.844 346.234 309.727C346.546 309.768 347.409 305.016 347.174 304.724C347.608 304.064 348.386 303.736 348.86 303.092C351.22 299.89 354.47 300.449 356.167 304.801C359.793 306.633 359.828 309.67 357.603 312.592C356.188 314.451 355.994 316.966 354.752 318.956C354.88 319.12 355.013 319.278 355.14 319.442C357.476 322.448 359.511 325.677 361.217 329.08C360.802 325.267 361.297 321.41 362.662 317.826C364.045 314.485 366.637 311.672 368.92 308.784C369.524 308.009 370.344 307.43 371.277 307.12C372.209 306.811 373.212 306.785 374.159 307.047C375.106 307.308 375.954 307.845 376.597 308.589C377.239 309.333 377.647 310.251 377.768 311.227C377.773 311.269 377.778 311.312 377.782 311.354C377.443 311.546 377.111 311.749 376.786 311.964C376.378 312.237 376.062 312.627 375.879 313.083C375.697 313.538 375.656 314.039 375.762 314.519C375.868 314.998 376.116 315.435 376.474 315.77C376.832 316.106 377.283 316.326 377.768 316.401L377.818 316.409C377.697 317.632 377.484 318.844 377.179 320.036C380.108 331.374 373.785 335.504 364.757 335.69C364.558 335.792 364.364 335.894 364.164 335.991C365.879 340.855 366.954 345.921 367.363 351.062C367.595 354.096 367.581 357.143 367.322 360.173L367.338 360.066C367.992 356.696 369.788 353.655 372.422 351.456C376.335 348.239 381.862 347.054 386.084 344.467C386.532 344.179 387.054 344.025 387.587 344.023C388.12 344.022 388.642 344.174 389.092 344.46C389.542 344.746 389.901 345.155 390.127 345.639C390.352 346.122 390.435 346.66 390.365 347.189L390.347 347.302C389.718 347.559 389.105 347.854 388.513 348.187C388.174 348.379 387.842 348.582 387.517 348.797C387.109 349.07 386.793 349.46 386.61 349.916C386.427 350.372 386.386 350.872 386.492 351.352C386.599 351.831 386.847 352.268 387.205 352.604C387.563 352.939 388.014 353.159 388.499 353.234L388.549 353.242C388.584 353.247 388.615 353.252 388.651 353.257C387.576 355.827 386.067 358.193 384.19 360.25C382.359 370.149 374.494 371.088 366.081 368.205H366.075C365.152 372.221 363.815 376.13 362.085 379.869H347.828C347.777 379.71 347.731 379.547 347.685 379.388C349.005 379.471 350.329 379.392 351.63 379.153C350.572 377.853 349.514 376.544 348.457 375.244C348.433 375.22 348.411 375.194 348.39 375.168C347.854 374.503 347.312 373.843 346.775 373.178L346.775 373.177C346.747 371.138 346.98 369.105 347.47 367.126L347.471 367.125Z" fill="#F2F2F2"/>
<path d="M190.447 61.2558C190.968 62.0453 191.653 62.7122 192.456 63.2104C193.26 63.7085 194.161 64.026 195.099 64.141C196.037 64.2559 196.989 64.1655 197.888 63.876C198.788 63.5865 199.614 63.1048 200.309 62.4643L229.949 75.8521L235.664 68.5547L200.344 52.9116C199.18 51.82 197.656 51.1938 196.062 51.1517C194.468 51.1095 192.913 51.6544 191.693 52.6829C190.474 53.7114 189.673 55.1522 189.443 56.7323C189.213 58.3123 189.571 59.9218 190.447 61.2558H190.447Z" fill="#A0616A"/>
<path d="M317.649 69.6046L320.589 86.2822C320.726 87.0603 320.699 87.8584 320.51 88.6255C320.321 89.3925 319.974 90.1115 319.49 90.7362C319.007 91.3609 318.399 91.8776 317.705 92.2531C317.01 92.6285 316.245 92.8545 315.458 92.9164L265.507 96.849L206.791 70.5408L213.804 57.2129L264.775 73.3723L317.649 69.6046Z" fill="#CBCBCB"/>
<path d="M200.742 57.6523H21.1583C9.47291 57.6523 0 67.1361 0 78.8349V256.334C0 268.033 9.47291 277.517 21.1583 277.517H200.742C212.427 277.517 221.9 268.033 221.9 256.334V78.8349C221.9 67.1361 212.427 57.6523 200.742 57.6523Z" fill="#F2F2F2"/>
<path d="M21.1584 62.0078C18.9513 62.0078 16.7657 62.443 14.7266 63.2886C12.6875 64.1342 10.8347 65.3737 9.274 66.9361C7.71332 68.4986 6.4753 70.3535 5.63067 72.395C4.78603 74.4365 4.35132 76.6245 4.35132 78.8342V256.334C4.35132 260.796 6.12206 265.076 9.274 268.232C12.4259 271.387 16.7009 273.16 21.1584 273.16H135.773C146.512 273.16 157.146 271.042 167.067 266.928C176.989 262.814 186.003 256.783 193.597 249.181C201.191 241.579 207.214 232.554 211.324 222.621C215.433 212.688 217.549 202.042 217.549 191.291V78.8342C217.549 76.6245 217.114 74.4365 216.269 72.395C215.425 70.3535 214.187 68.4986 212.626 66.9361C211.065 65.3737 209.212 64.1342 207.173 63.2886C205.134 62.443 202.949 62.0078 200.741 62.0078H21.1584Z" fill="#6C63FF"/>
<path d="M161.152 115.876H60.3555C59.4306 115.876 58.5436 115.508 57.8896 114.854C57.2356 114.199 56.8682 113.311 56.8682 112.385C56.8682 111.459 57.2356 110.571 57.8896 109.916C58.5436 109.261 59.4306 108.894 60.3555 108.894H161.152C162.077 108.894 162.964 109.261 163.618 109.916C164.272 110.571 164.639 111.459 164.639 112.385C164.639 113.311 164.272 114.199 163.618 114.854C162.964 115.508 162.077 115.876 161.152 115.876Z" fill="#F2F2F2"/>
<path d="M161.152 190.328H60.3555C59.4306 190.328 58.5436 189.961 57.8896 189.306C57.2356 188.651 56.8682 187.763 56.8682 186.837C56.8682 185.911 57.2356 185.023 57.8896 184.368C58.5436 183.714 59.4306 183.346 60.3555 183.346H161.152C162.077 183.346 162.964 183.714 163.618 184.368C164.272 185.023 164.639 185.911 164.639 186.837C164.639 187.763 164.272 188.651 163.618 189.306C162.964 189.961 162.077 190.328 161.152 190.328Z" fill="#F2F2F2"/>
<path d="M202.083 153.127H19.4244C18.4995 153.127 17.6124 152.759 16.9584 152.105C16.3044 151.45 15.937 150.562 15.937 149.636C15.937 148.71 16.3044 147.822 16.9584 147.167C17.6124 146.512 18.4995 146.145 19.4244 146.145H202.083C203.008 146.145 203.895 146.512 204.549 147.167C205.203 147.822 205.571 148.71 205.571 149.636C205.571 150.562 205.203 151.45 204.549 152.105C203.895 152.759 203.008 153.127 202.083 153.127Z" fill="#F2F2F2"/>
<path d="M311.338 143.113L293.142 181.923L363.14 174.825L348.528 137.568L311.338 143.113Z" fill="#A0616A"/>
<path d="M327.612 366.179L320.975 366.123L318.038 339.897L327.832 339.981L327.612 366.179Z" fill="#A0616A"/>
<path d="M306.354 376.744C306.348 377.532 306.654 378.289 307.206 378.851C307.757 379.413 308.509 379.733 309.296 379.74L322.491 379.851L324.801 375.163L325.649 379.875L330.628 379.92L329.371 363.115L327.639 363L320.573 362.512L318.294 362.359L318.254 367.114L307.654 374.312C307.257 374.582 306.931 374.944 306.705 375.367C306.478 375.791 306.358 376.263 306.354 376.744Z" fill="#2F2E41"/>
<path d="M254.167 366.209L247.839 364.203L252.728 338.271L262.066 341.231L254.167 366.209Z" fill="#A0616A"/>
<path d="M230.746 370.055C230.509 370.806 230.58 371.621 230.942 372.32C231.304 373.019 231.929 373.546 232.679 373.784L245.259 377.771L248.843 373.97L248.271 378.723L253.017 380.231L256.747 363.798L255.125 363.178L248.515 360.634L246.381 359.817L244.947 364.35L232.703 368.113C232.244 368.254 231.826 368.504 231.485 368.842C231.145 369.181 230.891 369.597 230.746 370.055Z" fill="#2F2E41"/>
<path d="M359.952 163.911L296.307 175.586C296.307 175.586 286.099 183.231 288.829 185.969C291.56 188.707 291.984 188.283 290.19 190.079C288.396 191.875 284.516 194.276 284.478 195.848C284.44 197.42 255.959 267.912 255.959 267.912C255.959 267.912 259.123 266.328 256.75 268.704C254.377 271.08 254.377 273.043 254.377 273.043L243.301 347.908L261.288 348.969L278.902 280.715L318.189 216.952C318.189 216.952 322.088 273.813 322.251 277.595C322.415 281.376 324.788 276.624 322.415 281.376C320.041 286.129 318.459 282.96 320.041 286.129C321.623 289.297 314.341 353.797 314.341 353.797H330.76L365.973 220.106C365.973 220.106 378.502 181.886 359.952 163.911Z" fill="#2F2E41"/>
<path d="M341.203 56.9752L315.709 54.3232L309.103 62.9084L301.409 67.0114C298.152 68.7477 295.464 71.3863 293.666 74.6117C291.869 77.837 291.037 81.5125 291.27 85.1987L300.263 137.568C300.263 137.568 292.667 154.691 297.889 158.953C303.112 163.215 293.852 173.77 305.01 168.458C316.167 163.145 364.345 169.25 364.345 169.25L354.06 139.944L361.743 111.147L362.589 87.0015C362.747 82.4895 361.409 78.0519 358.785 74.3804C356.161 70.7089 352.397 68.0099 348.08 66.7039L347.006 66.3789L341.203 56.9752Z" fill="#CBCBCB"/>
<path d="M376.301 37.4082C376.468 44.6024 373.783 51.5684 369.925 57.687C368.778 54.1151 366.718 50.8641 364.569 47.7651C365.652 54.4692 364.498 61.3438 361.285 67.3251C361.172 67.4062 361.055 67.4816 360.934 67.5508C357.789 69.4446 353.802 70.2116 350.401 68.8438C357.429 61.2586 358.324 48.6911 352.431 40.1831C350.763 37.769 348.605 35.6338 347.572 32.8864C345.94 28.5028 347.508 23.6764 348.498 19.106C349.423 14.8524 349.585 9.79058 346.734 6.67322C347.039 6.23757 347.454 5.89079 347.936 5.66843C348.418 5.44606 348.951 5.35609 349.48 5.40774C351.237 5.65627 352.516 7.18561 353.331 8.76073C354.146 10.3358 354.683 12.0815 355.819 13.442C357.922 15.9884 361.502 16.5904 364.52 17.9325C371.828 21.1914 376.126 29.4031 376.301 37.4082Z" fill="#2F2E41"/>
<path d="M188.015 379.911C188.015 380.035 188.039 380.158 188.086 380.272C188.133 380.387 188.203 380.491 188.29 380.579C188.378 380.666 188.482 380.736 188.596 380.783C188.711 380.83 188.833 380.854 188.957 380.854H389.345C389.595 380.854 389.834 380.755 390.011 380.578C390.187 380.401 390.286 380.161 390.286 379.911C390.286 379.661 390.187 379.422 390.011 379.245C389.834 379.068 389.595 378.969 389.345 378.969H188.957C188.833 378.968 188.711 378.992 188.596 379.04C188.482 379.087 188.378 379.156 188.29 379.244C188.203 379.332 188.134 379.436 188.086 379.55C188.039 379.665 188.015 379.787 188.015 379.911Z" fill="#CCCCCC"/>
<path d="M377.879 204.148C381.811 204.148 384.999 200.957 384.999 197.02C384.999 193.083 381.811 189.892 377.879 189.892C373.946 189.892 370.759 193.083 370.759 197.02C370.759 200.957 373.946 204.148 377.879 204.148Z" fill="#6C63FF"/>
<path d="M314.784 33.2949C315.202 31.8316 312.323 40.7769 313.712 40.9384C320.039 41.665 328.723 45.4476 333.13 47.2123C333.328 47.1892 333.526 47.1662 333.719 47.1373C334.192 47.0854 334.653 47.0105 335.108 46.924C345.368 44.9805 349.314 29.2019 349.314 29.0577C349.314 28.3484 347.613 8.86607 344.934 8.57776C344.231 8.50133 343.523 8.46283 342.816 8.46242H336.168C334.793 8.16567 333.399 7.96335 331.995 7.85689H331.984C318.601 6.83612 308.05 15.0021 309.036 24.9386C309.042 24.9502 309.053 24.9617 309.059 24.9732C309.345 25.4 309.596 25.8037 309.818 26.1901C310.034 26.5534 310.215 26.8994 310.372 27.2281C311.592 29.7656 308.457 32.9585 310.536 33.5545C313.301 34.3472 303.263 60.3998 314.208 60.3998C308.884 61.9151 313.632 37.3318 314.784 33.2949Z" fill="#2F2E41"/>
<path d="M326.73 48.5816C335.422 48.5816 342.469 41.5271 342.469 32.825C342.469 24.1228 335.422 17.0684 326.73 17.0684C318.038 17.0684 310.992 24.1228 310.992 32.825C310.992 41.5271 318.038 48.5816 326.73 48.5816Z" fill="#A0616A"/>
<path d="M309.036 25.7982C309.298 25.9366 309.555 26.0634 309.818 26.1903C310.092 26.3229 310.366 26.4556 310.641 26.5767C315.911 28.97 320.2 29.2353 322.803 25.7982C322.873 23.9896 323.279 22.2099 324 20.5502C323.872 22.405 324.361 24.2499 325.389 25.7982H330.63C336.028 29.3852 338.8 29.7601 335.053 41.5362C334.009 44.8176 329.855 63.9121 331.489 66.7437C331.962 66.6917 336.991 45.7774 337.446 45.6909C347.706 43.7475 354.225 26.8247 353.391 25.8674C353.395 23.145 352.77 20.4587 351.564 18.0185C350.039 14.927 347.661 12.3374 344.712 10.5561C342.955 9.7028 341.122 9.0136 339.238 8.49725C339.191 8.4857 339.15 8.47415 339.104 8.46265C338.526 8.30692 337.936 8.16275 337.347 8.04164C336.129 7.78422 334.898 7.59745 333.658 7.48226C333.571 7.47648 333.483 7.4707 333.402 7.4707C332.907 7.47186 332.421 7.60526 331.995 7.85712C331.989 7.85712 331.989 7.86286 331.984 7.86286C331.679 8.041 331.413 8.27824 331.201 8.56065C330.829 9.03583 330.627 9.62311 330.63 10.2273H324.793C324.577 10.2273 324.361 10.2331 324.146 10.2446C320.25 10.3779 316.545 11.9615 313.755 14.6857C310.964 17.4099 309.29 21.0784 309.059 24.9735C309.041 25.2503 309.036 25.5213 309.036 25.7982Z" fill="#2F2E41"/>
<path d="M343.447 20.7611C349.174 20.7611 353.816 16.1136 353.816 10.3806C353.816 4.64753 349.174 0 343.447 0C337.721 0 333.079 4.64753 333.079 10.3806C333.079 16.1136 337.721 20.7611 343.447 20.7611Z" fill="#2F2E41"/>
<path d="M377.959 199.96C378.465 199.161 378.792 198.261 378.916 197.324C379.041 196.386 378.961 195.432 378.681 194.529C378.401 193.625 377.929 192.793 377.297 192.09C376.664 191.387 375.887 190.83 375.018 190.458L375.07 157.904L366.079 155.676L366.301 194.341C365.783 195.852 365.837 197.5 366.452 198.973C367.067 200.446 368.2 201.642 369.637 202.335C371.074 203.027 372.715 203.168 374.249 202.73C375.783 202.292 377.103 201.307 377.959 199.96V199.96Z" fill="#A0616A"/>
<path d="M333.437 80.374L347.427 70.8549C348.08 70.4108 348.818 70.1083 349.595 69.9667C350.371 69.8251 351.168 69.8477 351.936 70.0329C352.703 70.218 353.423 70.5618 354.049 71.042C354.676 71.5222 355.196 72.1284 355.574 72.8215L379.628 116.826L379.72 181.228L364.703 180.286L358.538 127.116L333.437 80.374Z" fill="#CBCBCB"/>
<path d="M225.985 226.428H76.4599C73.2077 226.428 70.0886 227.721 67.7889 230.024C65.4892 232.326 64.1973 235.448 64.1973 238.704C64.1973 241.96 65.4892 245.083 67.7889 247.385C70.0886 249.688 73.2077 250.981 76.4599 250.981H225.985C229.238 250.981 232.357 249.688 234.657 247.385C236.956 245.083 238.248 241.96 238.248 238.704C238.248 235.448 236.956 232.326 234.657 230.024C232.357 227.721 229.238 226.428 225.985 226.428Z" fill="#6C63FF"/>
<path d="M225.986 251.773H76.4603C72.9982 251.773 69.6779 250.396 67.2299 247.946C64.7818 245.495 63.4065 242.171 63.4065 238.705C63.4065 235.238 64.7818 231.914 67.2299 229.463C69.6779 227.013 72.9982 225.636 76.4603 225.636H225.986C229.448 225.636 232.768 227.013 235.216 229.463C237.664 231.914 239.04 235.238 239.04 238.705C239.04 242.171 237.664 245.495 235.216 247.946C232.768 250.396 229.448 251.773 225.986 251.773ZM76.4603 227.22C73.4179 227.22 70.5 228.43 68.3487 230.584C66.1974 232.737 64.9888 235.659 64.9888 238.705C64.9888 241.75 66.1974 244.672 68.3487 246.825C70.5 248.979 73.4179 250.189 76.4603 250.189H225.986C229.028 250.189 231.946 248.979 234.097 246.825C236.249 244.672 237.457 241.75 237.457 238.705C237.457 235.659 236.249 232.737 234.097 230.584C231.946 228.43 229.028 227.22 225.986 227.22H76.4603Z" fill="#6C63FF"/>
<path d="M234.803 280.004H168.816C167.892 280.004 167.005 279.636 166.351 278.982C165.697 278.327 165.329 277.439 165.329 276.513C165.329 275.587 165.697 274.699 166.351 274.044C167.005 273.389 167.892 273.021 168.816 273.021H234.803C235.728 273.021 236.615 273.389 237.269 274.044C237.923 274.699 238.29 275.587 238.29 276.513C238.29 277.439 237.923 278.327 237.269 278.982C236.615 279.636 235.728 280.004 234.803 280.004Z" fill="#6C63FF"/>
</g>
<defs>
<clipPath id="clip0_370_93">
<rect width="390.397" height="380.854" fill="white"/>
</clipPath>
</defs>
</svg>
