<svg width="653" height="427" viewBox="0 0 653 427" fill="none" xmlns="http://www.w3.org/2000/svg">
<g clip-path="url(#clip0_276_103)">
<path d="M653 175.373H651.897V143.942C651.897 141.553 651.445 139.188 650.566 136.981C649.687 134.774 648.399 132.768 646.776 131.079C645.152 129.39 643.224 128.05 641.103 127.136C638.981 126.221 636.708 125.751 634.411 125.751H570.404C568.108 125.751 565.834 126.221 563.713 127.136C561.591 128.05 559.664 129.39 558.04 131.079C556.416 132.768 555.128 134.774 554.249 136.981C553.371 139.188 552.918 141.553 552.918 143.942V316.374C552.918 318.763 553.371 321.129 554.249 323.336C555.128 325.543 556.416 327.548 558.04 329.237C559.664 330.927 561.591 332.267 563.713 333.181C565.834 334.095 568.108 334.566 570.404 334.566H634.411C636.708 334.566 638.981 334.095 641.103 333.181C643.224 332.267 645.152 330.927 646.776 329.237C648.399 327.548 649.687 325.543 650.566 323.336C651.445 321.129 651.897 318.763 651.897 316.374V197.746H653V175.373Z" fill="#3F3D56"/>
<path d="M648.177 145.011V317.192C648.176 320.795 646.8 324.251 644.351 326.799C641.902 329.347 638.58 330.779 635.117 330.779H570.802C569.087 330.779 567.389 330.427 565.805 329.744C564.221 329.061 562.782 328.06 561.569 326.798C560.357 325.537 559.396 324.039 558.74 322.391C558.084 320.742 557.747 318.976 557.748 317.192V145.011C557.748 141.409 559.123 137.954 561.571 135.408C564.019 132.861 567.339 131.43 570.802 131.43H578.604C578.221 132.41 578.076 133.472 578.18 134.525C578.285 135.577 578.636 136.586 579.203 137.464C579.77 138.342 580.536 139.061 581.433 139.559C582.33 140.057 583.331 140.318 584.348 140.319H621.018C622.036 140.321 623.039 140.062 623.937 139.565C624.836 139.068 625.603 138.348 626.171 137.47C626.739 136.591 627.09 135.58 627.193 134.527C627.296 133.473 627.148 132.409 626.762 131.43H635.117C638.579 131.43 641.9 132.86 644.349 135.407C646.799 137.954 648.175 141.408 648.177 145.011Z" fill="#D0CDE1"/>
<path d="M636 219.584H561.236V240.573H636V219.584Z" fill="#6C63FF"/>
<path d="M638.967 236.866H566.576C566.105 236.865 565.652 236.67 565.318 236.323C564.985 235.976 564.797 235.505 564.796 235.014V216.495C564.797 216.004 564.985 215.533 565.318 215.186C565.652 214.838 566.105 214.643 566.576 214.643H638.967C639.439 214.643 639.892 214.838 640.225 215.186C640.559 215.533 640.747 216.004 640.747 216.495V235.014C640.747 235.505 640.559 235.976 640.225 236.323C639.892 236.67 639.439 236.865 638.967 236.866ZM566.576 215.877C566.419 215.877 566.268 215.942 566.157 216.058C566.046 216.174 565.983 216.331 565.983 216.495V235.014C565.983 235.178 566.046 235.335 566.157 235.45C566.268 235.566 566.419 235.631 566.576 235.631H638.967C639.124 235.631 639.275 235.566 639.387 235.45C639.498 235.335 639.56 235.178 639.561 235.014V216.495C639.56 216.331 639.498 216.174 639.387 216.058C639.275 215.942 639.124 215.877 638.967 215.877H566.576Z" fill="#3F3D56"/>
<path d="M579.037 231.312H569.543V232.547H579.037V231.312Z" fill="#3F3D56"/>
<path d="M592.092 231.312H582.598V232.547H592.092V231.312Z" fill="#3F3D56"/>
<path d="M605.146 231.312H595.652V232.547H605.146V231.312Z" fill="#3F3D56"/>
<path d="M618.199 231.312H608.706V232.547H618.199V231.312Z" fill="#3F3D56"/>
<path d="M631.254 231.312H621.76V232.547H631.254V231.312Z" fill="#3F3D56"/>
<path opacity="0.1" d="M648.177 299.685V317.192C648.176 320.795 646.8 324.251 644.351 326.799C641.902 329.347 638.58 330.779 635.117 330.779H570.802C569.087 330.779 567.389 330.427 565.805 329.744C564.221 329.061 562.782 328.06 561.569 326.799C560.357 325.537 559.396 324.039 558.74 322.391C558.084 320.742 557.747 318.976 557.748 317.192V236.657L648.177 299.685Z" fill="black"/>
<path d="M339.911 283.783H59.2485V427H339.911V283.783Z" fill="#D0CDE1"/>
<path opacity="0.1" d="M268.559 427H60.4353C60.1208 426.999 59.8195 426.869 59.5971 426.637C59.3748 426.406 59.2495 426.092 59.2485 425.765V285.018C59.2495 284.691 59.3748 284.377 59.5971 284.146C59.8195 283.915 60.1208 283.784 60.4353 283.783H63.0698L268.559 427Z" fill="black"/>
<path d="M624.133 302.919H189.196V304.154H624.133V302.919Z" fill="#3F3D56"/>
<path d="M326.703 2.66541H202.399V0H146.035V2.66541H21.2183C20.1141 2.66541 19.0207 2.89167 18.0006 3.33128C16.9805 3.77089 16.0536 4.41523 15.2728 5.22752C14.492 6.0398 13.8726 7.00413 13.4501 8.06543C13.0275 9.12674 12.8101 10.2642 12.8101 11.413V188.493C12.8101 190.813 13.6959 193.038 15.2728 194.678C16.8496 196.319 18.9883 197.241 21.2183 197.241H326.703C328.933 197.241 331.072 196.319 332.649 194.678C334.226 193.038 335.112 190.813 335.112 188.493V11.413C335.112 10.2642 334.894 9.12674 334.472 8.06543C334.049 7.00413 333.43 6.0398 332.649 5.22752C331.868 4.41523 330.941 3.77089 329.921 3.33128C328.901 2.89167 327.807 2.66541 326.703 2.66541Z" fill="#3F3D56"/>
<path d="M323.837 18.1211H24.0859V194.043H323.837V18.1211Z" fill="#D0CDE1"/>
<path d="M173.705 13.3286C175.403 13.3286 176.779 11.8966 176.779 10.1301C176.779 8.36366 175.403 6.93164 173.705 6.93164C172.007 6.93164 170.63 8.36366 170.63 10.1301C170.63 11.8966 172.007 13.3286 173.705 13.3286Z" fill="#6C63FF"/>
<path d="M113.245 83.7728H106.124C105.652 83.7722 105.2 83.577 104.866 83.2298C104.532 82.8826 104.345 82.4118 104.344 81.9208V74.5131C104.345 74.0221 104.532 73.5513 104.866 73.2041C105.2 72.857 105.652 72.6617 106.124 72.6611H113.245C113.717 72.6617 114.169 72.857 114.503 73.2041C114.837 73.5513 115.024 74.0221 115.025 74.5131V81.9208C115.024 82.4118 114.837 82.8826 114.503 83.2298C114.169 83.577 113.717 83.7722 113.245 83.7728ZM106.124 73.8958C105.967 73.896 105.816 73.9611 105.705 74.0768C105.594 74.1925 105.531 74.3494 105.531 74.5131V81.9208C105.531 82.0845 105.594 82.2414 105.705 82.3571C105.816 82.4728 105.967 82.5379 106.124 82.5382H113.245C113.402 82.5379 113.553 82.4728 113.664 82.3571C113.775 82.2414 113.838 82.0845 113.838 81.9208V74.5131C113.838 74.3494 113.775 74.1925 113.664 74.0768C113.553 73.9611 113.402 73.896 113.245 73.8958H106.124Z" fill="#3F3D56"/>
<path d="M240.225 82.541H104.938V83.7756H240.225V82.541Z" fill="#3F3D56"/>
<path d="M236.665 116.492H205.216V126.369H236.665V116.492Z" fill="#6C63FF"/>
<path d="M239.038 123.898H209.963C209.491 123.897 209.039 123.702 208.705 123.355C208.371 123.008 208.184 122.537 208.183 122.046V114.638C208.184 114.147 208.371 113.676 208.705 113.329C209.039 112.982 209.491 112.787 209.963 112.786H239.038C239.51 112.787 239.963 112.982 240.296 113.329C240.63 113.676 240.818 114.147 240.818 114.638V122.046C240.818 122.537 240.63 123.008 240.296 123.355C239.963 123.702 239.51 123.897 239.038 123.898ZM209.963 114.021C209.806 114.021 209.655 114.086 209.544 114.202C209.433 114.318 209.37 114.474 209.37 114.638V122.046C209.37 122.209 209.433 122.366 209.544 122.482C209.655 122.598 209.806 122.663 209.963 122.663H239.038C239.195 122.663 239.346 122.598 239.458 122.482C239.569 122.366 239.631 122.209 239.632 122.046V114.638C239.631 114.474 239.569 114.318 239.458 114.202C239.346 114.086 239.195 114.021 239.038 114.021H209.963Z" fill="#3F3D56"/>
<path d="M476.978 127.602H417.642V170.814H476.978V127.602Z" fill="#6C63FF"/>
<path d="M482.912 167.421H425.949C425.32 167.421 424.717 167.16 424.272 166.697C423.827 166.235 423.576 165.607 423.576 164.952V124.209C423.576 123.555 423.827 122.927 424.272 122.464C424.717 122.001 425.32 121.741 425.949 121.74H482.912C483.542 121.741 484.145 122.001 484.59 122.464C485.035 122.927 485.285 123.555 485.286 124.209V164.952C485.285 165.607 485.035 166.235 484.59 166.697C484.145 167.16 483.542 167.421 482.912 167.421ZM425.949 124.209V164.952H482.914L482.912 124.209H425.949Z" fill="#3F3D56"/>
<path d="M476.385 122.667H474.012C474.012 117.264 471.949 112.082 468.277 108.262C464.604 104.442 459.624 102.295 454.431 102.295C449.237 102.295 444.257 104.442 440.585 108.262C436.913 112.082 434.85 117.264 434.85 122.667H432.476C432.476 116.609 434.789 110.799 438.906 106.516C443.024 102.233 448.608 99.8262 454.431 99.8262C460.253 99.8262 465.838 102.233 469.955 106.516C474.072 110.799 476.385 116.609 476.385 122.667Z" fill="#3F3D56"/>
<path d="M460.364 139.639C460.365 138.564 460.097 137.508 459.585 136.574C459.073 135.64 458.336 134.862 457.446 134.315C456.556 133.769 455.544 133.474 454.511 133.46C453.478 133.445 452.459 133.711 451.555 134.232C450.651 134.753 449.894 135.511 449.358 136.43C448.822 137.349 448.525 138.397 448.499 139.472C448.472 140.546 448.715 141.61 449.205 142.556C449.694 143.503 450.413 144.301 451.289 144.87V151.495C451.289 151.925 451.37 152.35 451.528 152.746C451.686 153.143 451.918 153.503 452.209 153.806C452.501 154.11 452.847 154.351 453.228 154.515C453.609 154.679 454.018 154.764 454.431 154.764C455.264 154.764 456.063 154.419 456.652 153.806C457.241 153.193 457.572 152.362 457.572 151.495V144.87C458.426 144.316 459.13 143.546 459.619 142.631C460.108 141.716 460.364 140.686 460.364 139.639Z" fill="#3F3D56"/>
<path d="M178.218 347.366H168.725V348.601H178.218V347.366Z" fill="#3F3D56"/>
<path d="M191.272 347.366H181.778V348.601H191.272V347.366Z" fill="#3F3D56"/>
<path d="M204.326 347.366H194.833V348.601H204.326V347.366Z" fill="#3F3D56"/>
<path d="M217.381 347.366H207.887V348.601H217.381V347.366Z" fill="#3F3D56"/>
<path d="M230.435 347.366H220.941V348.601H230.435V347.366Z" fill="#3F3D56"/>
<path d="M352.371 416.504H74.0824C73.4532 416.504 72.8499 416.243 72.4049 415.78C71.9599 415.317 71.7097 414.69 71.709 414.035V273.288C71.7097 272.633 71.9599 272.005 72.4049 271.542C72.8499 271.079 73.4532 270.819 74.0824 270.818H352.371C353 270.819 353.604 271.079 354.049 271.542C354.494 272.005 354.744 272.633 354.744 273.288V414.035C354.744 414.69 354.494 415.317 354.049 415.78C353.604 416.243 353 416.504 352.371 416.504ZM74.0824 273.288V414.035H352.373L352.371 273.288H74.0824Z" fill="#3F3D56"/>
<path d="M86.5431 294.279C88.5094 294.279 90.1033 292.621 90.1033 290.575C90.1033 288.529 88.5094 286.871 86.5431 286.871C84.5769 286.871 82.9829 288.529 82.9829 290.575C82.9829 292.621 84.5769 294.279 86.5431 294.279Z" fill="#3F3D56"/>
<path d="M99.004 294.279C100.97 294.279 102.564 292.621 102.564 290.575C102.564 288.529 100.97 286.871 99.004 286.871C97.0378 286.871 95.4438 288.529 95.4438 290.575C95.4438 292.621 97.0378 294.279 99.004 294.279Z" fill="#3F3D56"/>
<path d="M111.464 294.279C113.431 294.279 115.025 292.621 115.025 290.575C115.025 288.529 113.431 286.871 111.464 286.871C109.498 286.871 107.904 288.529 107.904 290.575C107.904 292.621 109.498 294.279 111.464 294.279Z" fill="#3F3D56"/>
<path d="M239.632 356.009H159.527C159.055 356.008 158.603 355.813 158.269 355.466C157.935 355.119 157.748 354.648 157.747 354.157V333.168C157.748 332.677 157.935 332.207 158.269 331.859C158.603 331.512 159.055 331.317 159.527 331.316H239.632C240.104 331.317 240.556 331.512 240.89 331.859C241.223 332.207 241.411 332.677 241.412 333.168V354.157C241.411 354.648 241.223 355.119 240.89 355.466C240.556 355.813 240.104 356.008 239.632 356.009ZM159.527 332.551C159.37 332.551 159.219 332.616 159.108 332.732C158.997 332.848 158.934 333.005 158.934 333.168V354.157C158.934 354.321 158.997 354.478 159.108 354.593C159.219 354.709 159.37 354.774 159.527 354.774H239.632C239.789 354.774 239.94 354.709 240.051 354.593C240.162 354.478 240.225 354.321 240.225 354.157V333.168C240.225 333.005 240.162 332.848 240.051 332.732C239.94 332.616 239.789 332.551 239.632 332.551H159.527Z" fill="#3F3D56"/>
<path d="M259.807 356.628C265.705 356.628 270.487 351.653 270.487 345.516C270.487 339.379 265.705 334.404 259.807 334.404C253.908 334.404 249.126 339.379 249.126 345.516C249.126 351.653 253.908 356.628 259.807 356.628Z" fill="#6C63FF"/>
<path d="M263.366 355.39C261.136 355.39 258.957 354.702 257.103 353.413C255.249 352.124 253.804 350.292 252.95 348.149C252.097 346.006 251.874 343.648 252.309 341.372C252.744 339.097 253.818 337.007 255.394 335.367C256.971 333.727 258.98 332.61 261.167 332.157C263.354 331.704 265.621 331.937 267.681 332.824C269.741 333.712 271.501 335.216 272.74 337.144C273.979 339.073 274.64 341.341 274.64 343.661C274.637 346.77 273.448 349.751 271.334 351.95C269.221 354.149 266.355 355.386 263.366 355.39ZM263.366 333.166C261.371 333.166 259.421 333.782 257.762 334.935C256.103 336.088 254.81 337.727 254.047 339.645C253.283 341.562 253.084 343.672 253.473 345.708C253.862 347.744 254.823 349.614 256.233 351.081C257.644 352.549 259.442 353.548 261.398 353.953C263.355 354.358 265.383 354.15 267.226 353.356C269.07 352.562 270.645 351.217 271.753 349.491C272.862 347.765 273.453 345.736 273.453 343.661C273.451 340.878 272.387 338.211 270.496 336.243C268.605 334.276 266.041 333.169 263.366 333.166Z" fill="#3F3D56"/>
<path d="M263.525 348.043L257.78 342.066L259.458 340.32L263.208 344.22L273.67 328.753L275.611 330.175L263.525 348.043Z" fill="#3F3D56"/>
<path opacity="0.1" d="M257.379 194.043H24.0854V31.4492L257.379 194.043Z" fill="black"/>
<path d="M343.528 190.842H314.274V188.65C314.274 188.593 314.263 188.536 314.242 188.483C314.221 188.43 314.19 188.383 314.151 188.342C314.113 188.302 314.067 188.27 314.016 188.248C313.965 188.226 313.911 188.215 313.856 188.215H303.826C303.771 188.215 303.717 188.226 303.666 188.248C303.615 188.27 303.569 188.302 303.53 188.342C303.492 188.383 303.461 188.43 303.44 188.483C303.419 188.536 303.408 188.593 303.408 188.65V190.842H297.139V188.65C297.139 188.593 297.128 188.536 297.107 188.483C297.086 188.43 297.056 188.383 297.017 188.342C296.978 188.302 296.932 188.27 296.881 188.248C296.831 188.226 296.776 188.215 296.721 188.215H286.691C286.636 188.215 286.582 188.226 286.531 188.248C286.481 188.27 286.435 188.302 286.396 188.342C286.357 188.383 286.326 188.43 286.305 188.483C286.284 188.536 286.273 188.593 286.273 188.65V190.842H280.005V188.65C280.005 188.593 279.994 188.536 279.973 188.483C279.952 188.43 279.921 188.383 279.882 188.342C279.843 188.302 279.797 188.27 279.747 188.248C279.696 188.226 279.642 188.215 279.587 188.215H269.557C269.502 188.215 269.447 188.226 269.397 188.248C269.346 188.27 269.3 188.302 269.261 188.342C269.222 188.383 269.192 188.43 269.171 188.483C269.15 188.536 269.139 188.593 269.139 188.65V190.842H262.87V188.65C262.87 188.593 262.859 188.536 262.838 188.483C262.817 188.43 262.786 188.383 262.748 188.342C262.709 188.302 262.663 188.27 262.612 188.248C262.561 188.226 262.507 188.215 262.452 188.215H252.422C252.367 188.215 252.313 188.226 252.262 188.248C252.211 188.27 252.165 188.302 252.127 188.342C252.088 188.383 252.057 188.43 252.036 188.483C252.015 188.536 252.004 188.593 252.004 188.65V190.842H245.735V188.65C245.735 188.593 245.725 188.536 245.704 188.483C245.683 188.43 245.652 188.383 245.613 188.342C245.574 188.302 245.528 188.27 245.477 188.248C245.427 188.226 245.372 188.215 245.318 188.215H235.287C235.233 188.215 235.178 188.226 235.128 188.248C235.077 188.27 235.031 188.302 234.992 188.342C234.953 188.383 234.922 188.43 234.901 188.483C234.88 188.536 234.87 188.593 234.87 188.65V190.842H228.601V188.65C228.601 188.593 228.59 188.536 228.569 188.483C228.548 188.43 228.517 188.383 228.478 188.342C228.44 188.302 228.394 188.27 228.343 188.248C228.292 188.226 228.238 188.215 228.183 188.215H218.153C218.098 188.215 218.044 188.226 217.993 188.248C217.942 188.27 217.896 188.302 217.857 188.342C217.819 188.383 217.788 188.43 217.767 188.483C217.746 188.536 217.735 188.593 217.735 188.65V190.842H211.466V188.65C211.466 188.593 211.455 188.536 211.434 188.483C211.413 188.43 211.383 188.383 211.344 188.342C211.305 188.302 211.259 188.27 211.208 188.248C211.158 188.226 211.103 188.215 211.048 188.215H132.48C132.425 188.215 132.371 188.226 132.32 188.248C132.269 188.27 132.223 188.302 132.184 188.342C132.145 188.383 132.115 188.43 132.094 188.483C132.073 188.536 132.062 188.593 132.062 188.65V190.842H125.793V188.65C125.793 188.593 125.782 188.536 125.761 188.483C125.74 188.43 125.71 188.383 125.671 188.342C125.632 188.302 125.586 188.27 125.535 188.248C125.484 188.226 125.43 188.215 125.375 188.215H115.345C115.29 188.215 115.236 188.226 115.185 188.248C115.135 188.27 115.088 188.302 115.05 188.342C115.011 188.383 114.98 188.43 114.959 188.483C114.938 188.536 114.927 188.593 114.927 188.65V190.842H108.659V188.65C108.659 188.593 108.648 188.536 108.627 188.483C108.606 188.43 108.575 188.383 108.536 188.342C108.497 188.302 108.451 188.27 108.401 188.248C108.35 188.226 108.295 188.215 108.241 188.215H98.2106C98.1557 188.215 98.1014 188.226 98.0507 188.248C97.9999 188.27 97.9539 188.302 97.9151 188.342C97.8763 188.383 97.8455 188.43 97.8245 188.483C97.8035 188.536 97.7927 188.593 97.7927 188.65V190.842H91.5239V188.65C91.5239 188.593 91.5131 188.536 91.4921 188.483C91.4711 188.43 91.4403 188.383 91.4015 188.342C91.3627 188.302 91.3166 188.27 91.2659 188.248C91.2152 188.226 91.1609 188.215 91.106 188.215H81.076C81.0211 188.215 80.9668 188.226 80.9161 188.248C80.8653 188.27 80.8193 188.302 80.7805 188.342C80.7417 188.383 80.7109 188.43 80.6899 188.483C80.6689 188.536 80.6581 188.593 80.6581 188.65V190.842H74.3893V188.65C74.3893 188.593 74.3785 188.536 74.3575 188.483C74.3365 188.43 74.3057 188.383 74.2669 188.342C74.2281 188.302 74.182 188.27 74.1313 188.248C74.0806 188.226 74.0263 188.215 73.9714 188.215H63.9413C63.8865 188.215 63.8321 188.226 63.7814 188.248C63.7307 188.27 63.6846 188.302 63.6458 188.342C63.607 188.383 63.5762 188.43 63.5552 188.483C63.5342 188.536 63.5234 188.593 63.5234 188.65V190.842H57.2547V188.65C57.2547 188.593 57.2439 188.536 57.2229 188.483C57.2019 188.43 57.1711 188.383 57.1323 188.342C57.0935 188.302 57.0474 188.27 56.9967 188.248C56.946 188.226 56.8917 188.215 56.8368 188.215H46.8067C46.7519 188.215 46.6975 188.226 46.6468 188.248C46.5961 188.27 46.55 188.302 46.5112 188.342C46.4724 188.383 46.4416 188.43 46.4206 188.483C46.3996 188.536 46.3888 188.593 46.3888 188.65V190.842H40.1201V188.65C40.1201 188.593 40.1093 188.536 40.0883 188.483C40.0673 188.43 40.0365 188.383 39.9977 188.342C39.9589 188.302 39.9128 188.27 39.8621 188.248C39.8114 188.226 39.757 188.215 39.7021 188.215H29.6721C29.6173 188.215 29.5629 188.226 29.5122 188.248C29.4615 188.27 29.4154 188.302 29.3766 188.342C29.3378 188.383 29.307 188.43 29.286 188.483C29.265 188.536 29.2542 188.593 29.2542 188.65V190.842H10.03C8.71285 190.842 7.40859 191.112 6.19169 191.637C4.97479 192.161 3.86909 192.93 2.93772 193.899C2.00635 194.868 1.26754 196.018 0.763487 197.284C0.259432 198.55 -7.79218e-07 199.907 0 201.277V205.996C6.29481e-06 208.763 1.05674 211.417 2.93773 213.374C4.81872 215.331 7.36989 216.43 10.03 216.43H343.528C344.845 216.43 346.15 216.161 347.366 215.636C348.583 215.112 349.689 214.343 350.62 213.374C351.552 212.405 352.291 211.255 352.795 209.989C353.299 208.723 353.558 207.366 353.558 205.996V201.277C353.558 199.907 353.299 198.55 352.795 197.284C352.291 196.018 351.552 194.868 350.62 193.899C349.689 192.93 348.583 192.161 347.366 191.637C346.15 191.112 344.845 190.842 343.528 190.842Z" fill="#3F3D56"/>
<path d="M252.092 134.394H95.4437C94.9717 134.393 94.5192 134.198 94.1855 133.851C93.8518 133.503 93.6641 133.033 93.6636 132.542V64.6371C93.6641 64.1461 93.8518 63.6754 94.1855 63.3282C94.5192 62.981 94.9717 62.7857 95.4437 62.7852H252.092C252.564 62.7857 253.017 62.981 253.351 63.3282C253.684 63.6754 253.872 64.1461 253.873 64.6371V132.542C253.872 133.033 253.684 133.503 253.351 133.851C253.017 134.198 252.564 134.393 252.092 134.394ZM95.4437 64.0198C95.2864 64.02 95.1356 64.0851 95.0243 64.2008C94.9131 64.3165 94.8505 64.4734 94.8503 64.6371V132.542C94.8505 132.705 94.9131 132.862 95.0243 132.978C95.1356 133.094 95.2864 133.159 95.4437 133.159H252.092C252.25 133.159 252.401 133.094 252.512 132.978C252.623 132.862 252.686 132.705 252.686 132.542V64.6371C252.686 64.4734 252.623 64.3165 252.512 64.2008C252.401 64.0851 252.25 64.02 252.092 64.0198H95.4437Z" fill="#3F3D56"/>
<path d="M113.245 102.295H106.124C105.652 102.295 105.2 102.099 104.866 101.752C104.532 101.405 104.345 100.934 104.344 100.443V93.0355C104.345 92.5445 104.532 92.0738 104.866 91.7266C105.2 91.3794 105.652 91.1841 106.124 91.1836H113.245C113.717 91.1841 114.169 91.3794 114.503 91.7266C114.837 92.0738 115.024 92.5445 115.025 93.0355V100.443C115.024 100.934 114.837 101.405 114.503 101.752C114.169 102.099 113.717 102.295 113.245 102.295ZM106.124 92.4182C105.967 92.4184 105.816 92.4835 105.705 92.5993C105.594 92.715 105.531 92.8719 105.531 93.0355V100.443C105.531 100.607 105.594 100.764 105.705 100.88C105.816 100.995 105.967 101.06 106.124 101.061H113.245C113.402 101.06 113.553 100.995 113.664 100.88C113.775 100.764 113.838 100.607 113.838 100.443V93.0355C113.838 92.8719 113.775 92.715 113.664 92.5993C113.553 92.4835 113.402 92.4184 113.245 92.4182H106.124Z" fill="#3F3D56"/>
<path d="M240.225 101.058H104.938V102.292H240.225V101.058Z" fill="#3F3D56"/>
<path d="M592.092 166.494H157.154V167.729H592.092V166.494Z" fill="#3F3D56"/>
<path d="M157.154 175.136C161.742 175.136 165.461 171.267 165.461 166.494C165.461 161.721 161.742 157.852 157.154 157.852C152.566 157.852 148.847 161.721 148.847 166.494C148.847 171.267 152.566 175.136 157.154 175.136Z" fill="#3F3D56"/>
<path d="M592.091 174.518C595.696 174.518 598.619 171.478 598.619 167.728C598.619 163.978 595.696 160.938 592.091 160.938C588.487 160.938 585.564 163.978 585.564 167.728C585.564 171.478 588.487 174.518 592.091 174.518Z" fill="#3F3D56"/>
<path d="M624.133 310.945C627.738 310.945 630.661 307.905 630.661 304.155C630.661 300.404 627.738 297.364 624.133 297.364C620.529 297.364 617.606 300.404 617.606 304.155C617.606 307.905 620.529 310.945 624.133 310.945Z" fill="#3F3D56"/>
<path d="M190.976 310.945C194.581 310.945 197.503 307.905 197.503 304.155C197.503 300.404 194.581 297.364 190.976 297.364C187.371 297.364 184.449 300.404 184.449 304.155C184.449 307.905 187.371 310.945 190.976 310.945Z" fill="#3F3D56"/>
</g>
<defs>
<clipPath id="clip0_276_103">
<rect width="653" height="427" fill="white"/>
</clipPath>
</defs>
</svg>
